<?xml version="1.0" standalone="no"?>
<!DOCTYPE svg PUBLIC "-//W3C//DTD SVG 20010904//EN"
 "http://www.w3.org/TR/2001/REC-SVG-20010904/DTD/svg10.dtd">
<svg version="1.0" xmlns="http://www.w3.org/2000/svg"
 width="500.000000pt" height="500.000000pt" viewBox="0 0 500.000000 500.000000"
 preserveAspectRatio="xMidYMid meet">

<g transform="translate(0.000000,500.000000) scale(0.100000,-0.100000)"
fill="#000000" stroke="none">
<path d="M1197 3862 c-16 -17 -17 -82 -17 -723 0 -621 2 -707 16 -727 l15 -22
650 0 c387 0 649 4 649 9 0 43 24 41 -651 41 l-639 0 0 605 0 605 162 0 c130
0 160 3 150 13 -8 7 -54 14 -120 17 l-107 5 -3 60 c-2 32 -8 65 -14 72 -8 11
196 13 1094 13 l1105 0 6 -137 c4 -75 7 -346 7 -603 l0 -466 -87 2 c-49 1
-178 16 -288 34 -110 18 -215 34 -233 37 -27 4 -33 9 -30 28 3 25 -17 55 -38
55 -8 0 -31 -12 -53 -28 -21 -15 -57 -36 -80 -47 -38 -16 -42 -21 -36 -44 6
-24 46 -124 80 -196 l13 -30 28 63 c15 34 33 62 40 62 8 0 60 -7 116 -15 57
-8 121 -17 143 -19 128 -14 281 -39 285 -46 3 -5 34 -13 69 -19 79 -13 89 -21
27 -21 -43 0 -47 -2 -44 -22 3 -22 7 -23 103 -23 57 -1 176 -13 275 -28 96
-15 177 -23 181 -19 3 4 11 40 18 79 17 110 16 111 -239 148 l-205 30 -3 619
c-2 559 -4 621 -19 638 -15 17 -67 18 -1163 18 -1098 0 -1148 -1 -1163 -18z
m2558 -1448 c192 -27 211 -31 202 -40 -7 -8 -374 44 -402 56 l-20 9 20 0 c11
1 101 -10 200 -25z"/>
<path d="M1317 3344 c-4 -4 -7 -29 -7 -55 l0 -47 40 1 40 2 0 43 c0 40 -2 42
-29 42 -16 0 -31 5 -33 11 -2 5 -7 7 -11 3z"/>
<path d="M2042 3288 c3 -46 0 -44 71 -39 29 2 18 35 -19 59 -49 31 -56 28 -52
-20z"/>
<path d="M1889 2743 c-43 -42 -77 -78 -75 -80 2 -3 38 30 79 71 76 78 93 88
104 60 8 -21 -13 -40 -62 -57 -28 -10 -41 -21 -43 -35 -4 -29 22 -38 51 -20
12 8 30 18 40 21 15 6 17 3 12 -13 -8 -24 7 -26 25 -5 8 9 26 15 46 13 23 -1
41 5 58 21 l25 24 105 -53 c58 -28 124 -54 146 -57 l40 -6 -6 31 c-5 22 0 41
14 64 l21 34 -27 2 c-15 2 -82 -2 -149 -9 -68 -7 -126 -9 -130 -6 -3 4 3 17
15 30 43 45 21 35 -26 -12 -37 -37 -56 -48 -81 -49 -18 0 -39 -6 -47 -13 -11
-9 -14 -7 -14 10 0 11 -2 21 -3 21 -10 0 -67 -32 -72 -41 -11 -16 -35 -10 -35
9 0 13 12 22 38 30 59 18 76 34 68 65 -3 15 -13 27 -22 27 -9 0 -52 -35 -95
-77z"/>
<path d="M1275 2280 c-41 -54 -75 -102 -75 -105 0 -8 164 -6 175 3 9 6 35 44
119 175 l18 27 -80 0 -81 0 -76 -100z"/>
<path d="M1465 2283 c-33 -53 -61 -101 -63 -105 -2 -4 34 -8 81 -8 l85 0 51
100 c28 54 51 102 51 105 0 3 -33 5 -72 5 l-73 0 -60 -97z"/>
<path d="M1641 2280 c-37 -73 -47 -102 -37 -106 7 -3 46 -4 86 -2 l73 3 24 65
c13 36 30 79 38 97 8 17 15 34 15 37 0 3 -34 6 -75 6 l-74 0 -50 -100z"/>
<path d="M1850 2358 c-44 -111 -67 -174 -63 -180 4 -7 813 -12 813 -5 0 2 -16
41 -35 87 -35 86 -40 85 -26 -2 4 -27 5 -48 0 -48 -9 0 -16 30 -25 108 l-7 62
-73 0 -74 0 0 -85 c0 -50 -4 -85 -10 -85 -6 0 -10 35 -10 85 l0 85 -74 0 -74
0 -6 -32 c-3 -18 -8 -57 -12 -85 -4 -29 -11 -53 -16 -53 -6 0 -8 14 -4 33 3
17 8 56 12 85 l7 52 -76 0 -75 0 -17 -74 c-17 -73 -30 -105 -38 -96 -3 3 6 40
18 82 12 43 20 80 17 83 -3 3 -36 5 -74 5 -62 0 -69 -2 -78 -22z"/>
<path d="M3445 2240 c4 -25 8 -51 11 -57 3 -13 64 -19 64 -7 0 5 -48 72 -72
99 -5 6 -6 -9 -3 -35z"/>
<path d="M3645 1761 c-179 -63 -567 -208 -607 -228 l-37 -18 38 -95 38 -95
124 -5 124 -5 -27 -19 c-25 -16 -28 -25 -28 -72 l0 -54 -35 0 c-34 0 -35 -1
-35 -39 0 -37 2 -40 33 -43 l32 -3 5 -136 c6 -153 16 -179 75 -199 22 -7 55
-9 81 -5 l44 6 0 43 0 44 -44 -5 c-60 -7 -67 9 -64 144 l3 108 53 3 52 3 0 40
0 39 -55 0 -55 0 0 75 0 75 299 2 299 3 -50 120 c-27 66 -70 173 -96 237 -26
65 -49 117 -52 117 -3 0 -54 -17 -115 -38z"/>
<path d="M1277 1346 c-63 -23 -91 -51 -107 -109 -27 -94 14 -151 156 -218 57
-26 107 -56 113 -67 32 -61 -11 -117 -89 -117 -64 0 -108 32 -132 97 -2 4 -22
2 -45 -4 -48 -12 -54 -28 -28 -77 36 -70 144 -119 233 -106 153 22 224 179
129 284 -12 13 -68 46 -125 72 -113 54 -135 78 -114 124 24 51 99 56 146 8
l25 -25 41 23 c22 12 40 26 40 30 0 16 -82 79 -117 88 -49 14 -79 13 -126 -3z"/>
<path d="M290 1050 l0 -300 195 0 195 0 0 50 0 50 -145 0 -145 0 0 75 0 75
135 0 135 0 0 45 0 44 -132 3 -133 3 -3 78 -3 77 146 0 145 0 0 50 0 50 -195
0 -195 0 0 -300z"/>
<path d="M1640 1305 l0 -45 50 0 50 0 0 45 0 45 -50 0 -50 0 0 -45z"/>
<path d="M2150 1175 c-25 -24 -26 -24 -70 -9 -90 31 -184 -9 -216 -92 -17 -44
-17 -49 -1 -95 16 -44 16 -51 2 -78 -21 -41 -19 -94 4 -122 19 -24 19 -24 -6
-44 -22 -18 -24 -25 -17 -60 16 -88 126 -141 243 -117 30 7 65 19 78 28 33 21
56 79 49 122 -10 66 -56 93 -181 108 -80 9 -105 19 -105 43 0 18 6 19 73 15
62 -4 77 -2 111 18 56 33 79 79 72 148 -4 49 -2 58 20 81 l25 26 -21 26 c-26
33 -29 33 -60 2z m-71 -101 c12 -15 21 -37 21 -49 0 -12 -9 -34 -21 -49 -41
-52 -129 -22 -129 45 0 42 35 79 75 79 24 0 39 -7 54 -26z m19 -365 c70 -23
24 -79 -65 -79 -44 0 -58 5 -84 28 -28 25 -30 31 -19 51 11 22 16 23 73 17 34
-4 77 -12 95 -17z"/>
<path d="M2484 1170 c-17 -6 -37 -17 -44 -25 -17 -21 -30 -19 -30 5 0 17 -7
20 -45 20 l-45 0 0 -210 0 -210 45 0 45 0 0 139 c0 123 2 141 20 164 39 49
125 44 149 -9 6 -15 11 -81 11 -159 l0 -135 45 0 45 0 0 158 c0 172 -9 206
-61 245 -31 22 -92 30 -135 17z"/>
<path d="M2886 1166 c-36 -14 -96 -61 -96 -77 0 -4 13 -17 29 -28 l30 -21 37
25 c48 33 97 33 129 0 14 -13 25 -33 25 -43 0 -17 -10 -20 -93 -24 -97 -5
-148 -23 -167 -57 -15 -29 -12 -98 6 -132 17 -34 82 -68 127 -69 35 0 88 22
106 43 19 23 29 21 33 -5 2 -19 10 -24 41 -26 l38 -3 -3 165 c-3 149 -5 167
-24 193 -46 61 -142 87 -218 59z m154 -255 c0 -10 -9 -30 -20 -44 -52 -66
-177 -46 -154 25 8 27 38 37 112 37 54 1 62 -1 62 -18z"/>
<path d="M4223 1165 c-18 -7 -38 -23 -45 -34 -18 -29 -28 -26 -28 9 0 29 -2
30 -45 30 l-45 0 0 -210 0 -210 45 0 45 0 0 103 c0 120 11 165 47 202 23 22
34 26 65 22 34 -5 39 -2 58 30 26 45 26 49 -11 62 -40 14 -47 13 -86 -4z"/>
<path d="M4502 1169 c-45 -13 -105 -76 -120 -125 -27 -92 -8 -188 49 -245 72
-72 206 -77 280 -11 l30 27 -28 27 -29 28 -39 -20 c-46 -24 -86 -25 -124 -6
-25 13 -51 52 -51 76 0 6 60 10 145 10 l145 0 0 38 c0 60 -19 111 -57 153 -49
54 -119 71 -201 48z m134 -102 c12 -12 25 -32 29 -44 6 -23 5 -23 -94 -23 -79
0 -101 3 -101 14 0 19 39 66 64 76 30 13 77 2 102 -23z"/>
<path d="M1650 960 l0 -210 45 0 45 0 0 210 0 210 -45 0 -45 0 0 -210z"/>
<path d="M3560 1017 c0 -139 2 -157 23 -197 39 -79 138 -103 208 -51 35 26 49
27 49 1 0 -17 7 -20 45 -20 l45 0 0 210 0 210 -43 0 -44 0 -6 -130 c-4 -102
-10 -138 -24 -163 -21 -35 -66 -53 -108 -43 -43 11 -55 57 -55 206 l0 130 -45
0 -45 0 0 -153z"/>
<path d="M800 1005 l0 -35 120 0 120 0 0 35 0 35 -120 0 -120 0 0 -35z"/>
</g>
</svg>
